PathFileType	3	(X/Y/Z)	D:\minhoCalibration\240510\subject1_KPNP\preferred\preferred15.trc
DataRate	CameraRate	NumFrames	NumMarkers	Units	OrigDataRate	OrigDataStartFrame	OrigNumFrames
200.0	200.0	12	10	mm	200.0	516	228	
Frame#	Time	Left_Ankle_Outer1			Left_Ankle_Inner1			Left_Knee_Outer1			Left_Knee_Inner1			Left_Wrist1			Right_Wrist1			Right_Knee_Inner1			Right_Knee_Outer1			Right_Ankle_Inner1			Right_Ankle_Outer1			
		X1	Y1	Z1	X2	Y2	Z2	X3	Y3	Z3	X4	Y4	Z4	X5	Y5	Z5	X6	Y6	Z6	X7	Y7	Z7	X8	Y8	Z8	X9	Y9	Z9	X10	Y10	Z10	
516	2.57	-517.60114	119.54192	-553.15741	-559.33337	129.18382	-516.12927	-365.47076	536.52899	-433.60196	-467.83453	517.98828	-400.05722	-344.16846	1004.8076	-557.70099	-689.76038	1053.9408	-470.43967	-492.66663	705.17371	-170.9455	-604.81708	736.9826	-154.64116	-654.5907	292.8764	-255.59166	-728.44226	285.784	-156.80528
517	2.575	-516.63971	118.44991	-554.20721	-558.54285	127.55985	-517.03583	-365.40289	534.9812	-431.90701	-468.258	516.50464	-399.87668	-343.45724	1003.6001	-555.67377	-689.5882	1050.4292	-472.14774	-498.01126	694.49921	-177.44881	-610.95624	726.61786	-161.07964	-661.26752	286.29764	-278.79688	-737.84796	277.17749	-181.41624
518	2.58	-515.80011	117.22267	-554.89844	-559.34534	126.95818	-520.1123	-365.61621	533.35364	-430.02765	-469.08072	514.9986	-399.55917	-342.53586	1002.3876	-553.78595	-689.48383	1046.9485	-473.86331	-503.68237	683.89954	-183.88255	-617.1673	716.38007	-167.89281	-667.40887	280.63803	-302.15955	-746.83087	269.30362	-206.10654
519	2.585	-515.26007	116.06461	-555.45721	-558.67365	125.9564	-520.71887	-365.5274	531.83685	-428.0267	-469.90744	513.59064	-399.13208	-341.86411	1001.0475	-551.81665	-689.79468	1043.8538	-475.62955	-509.578	673.46252	-190.58202	-623.69482	706.24768	-174.73181	-674.12885	275.43076	-323.56747	-755.35229	262.01288	-230.75856
520	2.59	-515.01648	114.87757	-555.64148	-558.73267	124.66389	-521.22534	-365.68478	530.40094	-426.00836	-470.66867	512.32672	-398.6456	-341.20581	999.78906	-549.87549	-689.82709	1040.7424	-477.52002	-515.86646	663.26685	-197.5538	-630.11224	696.16766	-182.32188	-679.35455	270.76532	-346.38098	-763.18774	254.64793	-256.35977
521	2.595	-514.57037	114.15781	-556.30762	-558.69031	123.91348	-521.70734	-365.67355	528.97925	-424.01151	-471.42209	511.01266	-398.0188	-340.57993	998.4635	-547.98004	-690.11743	1037.6508	-479.54507	-521.80615	653.29877	-205.39307	-636.36108	685.80121	-190.83141	-684.16248	266.39191	-367.76501	-770.84393	249.01643	-279.74719
522	2.6	-514.55835	113.3582	-556.43549	-558.77692	123.22411	-522.54376	-365.71429	527.64923	-422.047	-472.05984	509.65161	-397.32443	-340.43335	996.99774	-546.07361	-690.7832	1034.9109	-480.79932	-528.04608	643.96362	-212.58559	-642.82379	676.44116	-199.02452	-688.8855	261.59344	-391.0192	-777.9104	242.7019	-305.29108
523	2.605	-514.77197	112.64876	-556.49182	-559.16797	122.29675	-522.40613	-365.74835	526.54138	-420.15561	-472.66016	508.8743	-395.88171	-340.10089	995.69177	-544.3017	-689.77911	1031.547	-485.1832	-534.32306	634.71918	-220.5896	-649.73596	666.87683	-207.98225	-693.11627	258.41806	-411.15662	-784.6236	237.53734	-329.48541
524	2.61	-515.06665	112.05232	-556.45343	-559.10052	121.56896	-521.59332	-365.62363	525.52307	-418.25827	-472.65405	508.06564	-394.80771	-339.74637	994.42841	-542.61432	-691.11407	1028.7838	-486.33072	-540.74866	625.98615	-228.50414	-656.0174	657.64136	-217.88808	-697.2027	254.74593	-431.71503	-790.89264	232.97258	-353.19696
525	2.615	-515.36658	111.65112	-556.40839	-559.37958	120.72201	-521.02777	-365.7157	524.48724	-416.52936	-473.00021	507.20154	-393.44815	-339.54688	993.19806	-540.89929	-691.7486	1025.8595	-488.81512	-547.39502	617.6767	-236.50264	-663.21313	649.15894	-227.18329	-700.42548	251.49828	-452.89413	-796.58337	228.63316	-377.11389
526	2.62	-515.83838	111.23314	-556.26776	-559.76093	120.58896	-521.00305	-365.98114	523.58191	-414.82471	-473.28799	506.38144	-391.95432	-339.44818	992.04547	-539.1416	-692.16986	1022.9875	-491.47437	-554.12	609.96478	-244.08505	-670.14343	640.98273	-237.17152	-702.97644	249.3994	-472.62106	-801.88824	224.8643	-400.19116
527	2.625	-516.36536	110.64021	-555.74701	-560.42352	119.98145	-521.16364	-366.13251	522.69653	-413.14505	-473.70999	505.44077	-390.72748	-339.45319	990.98309	-537.35107	-692.4295	1019.4887	-495.24918	-561.08014	602.3031	-252.09514	-677.35339	633.03467	-247.48048	-706.27863	245.83276	-491.84827	-806.7605	221.53146	-422.72314
